<mxfile host="app.diagrams.net" modified="2022-01-02T08:57:43.147Z" agent="5.0 (Windows NT 10.0; Win64; x64) AppleWebKit/537.36 (KHTML, like Gecko) Chrome/96.0.4664.110 Safari/537.36" etag="oaBJBe22UwEdRSzaVt-r" version="16.1.2" type="github">
  <diagram id="C5RBs43oDa-KdzZeNtuy" name="Page-1">
    <mxGraphModel dx="868" dy="482" grid="1" gridSize="10" guides="1" tooltips="1" connect="1" arrows="1" fold="1" page="1" pageScale="1" pageWidth="827" pageHeight="1169" math="0" shadow="0">
      <root>
        <mxCell id="WIyWlLk6GJQsqaUBKTNV-0" />
        <mxCell id="WIyWlLk6GJQsqaUBKTNV-1" parent="WIyWlLk6GJQsqaUBKTNV-0" />
        <mxCell id="d7KhDOHrDwzFdc9Ohjej-25" value="" style="edgeStyle=orthogonalEdgeStyle;rounded=0;orthogonalLoop=1;jettySize=auto;html=1;strokeColor=#000000;" edge="1" parent="WIyWlLk6GJQsqaUBKTNV-1" source="d7KhDOHrDwzFdc9Ohjej-15" target="d7KhDOHrDwzFdc9Ohjej-16">
          <mxGeometry relative="1" as="geometry" />
        </mxCell>
        <mxCell id="d7KhDOHrDwzFdc9Ohjej-15" value="START" style="rounded=1;whiteSpace=wrap;html=1;" vertex="1" parent="WIyWlLk6GJQsqaUBKTNV-1">
          <mxGeometry x="354" y="20" width="120" height="40" as="geometry" />
        </mxCell>
        <mxCell id="d7KhDOHrDwzFdc9Ohjej-27" value="" style="edgeStyle=orthogonalEdgeStyle;rounded=0;orthogonalLoop=1;jettySize=auto;html=1;strokeColor=#000000;" edge="1" parent="WIyWlLk6GJQsqaUBKTNV-1" source="d7KhDOHrDwzFdc9Ohjej-16" target="d7KhDOHrDwzFdc9Ohjej-17">
          <mxGeometry relative="1" as="geometry" />
        </mxCell>
        <mxCell id="d7KhDOHrDwzFdc9Ohjej-16" value="Generate a random word" style="rounded=1;whiteSpace=wrap;html=1;" vertex="1" parent="WIyWlLk6GJQsqaUBKTNV-1">
          <mxGeometry x="339" y="110" width="150" height="60" as="geometry" />
        </mxCell>
        <mxCell id="d7KhDOHrDwzFdc9Ohjej-28" value="" style="edgeStyle=orthogonalEdgeStyle;rounded=0;orthogonalLoop=1;jettySize=auto;html=1;strokeColor=#000000;" edge="1" parent="WIyWlLk6GJQsqaUBKTNV-1" source="d7KhDOHrDwzFdc9Ohjej-17" target="d7KhDOHrDwzFdc9Ohjej-18">
          <mxGeometry relative="1" as="geometry" />
        </mxCell>
        <mxCell id="d7KhDOHrDwzFdc9Ohjej-17" value="Generate as many blanks as letters in word" style="rounded=1;whiteSpace=wrap;html=1;" vertex="1" parent="WIyWlLk6GJQsqaUBKTNV-1">
          <mxGeometry x="324" y="210" width="180" height="60" as="geometry" />
        </mxCell>
        <mxCell id="d7KhDOHrDwzFdc9Ohjej-29" value="" style="edgeStyle=orthogonalEdgeStyle;rounded=0;orthogonalLoop=1;jettySize=auto;html=1;strokeColor=#000000;" edge="1" parent="WIyWlLk6GJQsqaUBKTNV-1" source="d7KhDOHrDwzFdc9Ohjej-18" target="d7KhDOHrDwzFdc9Ohjej-19">
          <mxGeometry relative="1" as="geometry" />
        </mxCell>
        <mxCell id="d7KhDOHrDwzFdc9Ohjej-18" value="Asks the user to guess a word" style="rounded=1;whiteSpace=wrap;html=1;" vertex="1" parent="WIyWlLk6GJQsqaUBKTNV-1">
          <mxGeometry x="329" y="320" width="169" height="60" as="geometry" />
        </mxCell>
        <mxCell id="d7KhDOHrDwzFdc9Ohjej-30" value="&lt;font style=&quot;font-size: 14px&quot;&gt;Yes&lt;/font&gt;" style="edgeStyle=orthogonalEdgeStyle;rounded=0;orthogonalLoop=1;jettySize=auto;html=1;entryX=0.5;entryY=0;entryDx=0;entryDy=0;strokeColor=#000000;fontSize=10;" edge="1" parent="WIyWlLk6GJQsqaUBKTNV-1" source="d7KhDOHrDwzFdc9Ohjej-19" target="d7KhDOHrDwzFdc9Ohjej-20">
          <mxGeometry relative="1" as="geometry" />
        </mxCell>
        <mxCell id="d7KhDOHrDwzFdc9Ohjej-31" value="No" style="edgeStyle=orthogonalEdgeStyle;rounded=0;orthogonalLoop=1;jettySize=auto;html=1;entryX=0.5;entryY=0;entryDx=0;entryDy=0;strokeColor=#000000;fontSize=14;" edge="1" parent="WIyWlLk6GJQsqaUBKTNV-1" source="d7KhDOHrDwzFdc9Ohjej-19" target="d7KhDOHrDwzFdc9Ohjej-21">
          <mxGeometry relative="1" as="geometry" />
        </mxCell>
        <mxCell id="d7KhDOHrDwzFdc9Ohjej-19" value="Is the guessed letter in the word?" style="rhombus;whiteSpace=wrap;html=1;spacingTop=8;" vertex="1" parent="WIyWlLk6GJQsqaUBKTNV-1">
          <mxGeometry x="329" y="420" width="170" height="130" as="geometry" />
        </mxCell>
        <mxCell id="d7KhDOHrDwzFdc9Ohjej-32" value="" style="edgeStyle=orthogonalEdgeStyle;rounded=0;orthogonalLoop=1;jettySize=auto;html=1;labelBackgroundColor=#ffffff;fontSize=14;strokeColor=#000000;" edge="1" parent="WIyWlLk6GJQsqaUBKTNV-1" source="d7KhDOHrDwzFdc9Ohjej-20" target="d7KhDOHrDwzFdc9Ohjej-22">
          <mxGeometry relative="1" as="geometry" />
        </mxCell>
        <mxCell id="d7KhDOHrDwzFdc9Ohjej-20" value="Replace the blank with the letter" style="rounded=1;whiteSpace=wrap;html=1;" vertex="1" parent="WIyWlLk6GJQsqaUBKTNV-1">
          <mxGeometry x="160" y="560" width="120" height="60" as="geometry" />
        </mxCell>
        <mxCell id="d7KhDOHrDwzFdc9Ohjej-33" value="" style="edgeStyle=orthogonalEdgeStyle;rounded=0;orthogonalLoop=1;jettySize=auto;html=1;labelBackgroundColor=#ffffff;fontSize=14;strokeColor=#000000;" edge="1" parent="WIyWlLk6GJQsqaUBKTNV-1" source="d7KhDOHrDwzFdc9Ohjej-21" target="d7KhDOHrDwzFdc9Ohjej-23">
          <mxGeometry relative="1" as="geometry" />
        </mxCell>
        <mxCell id="d7KhDOHrDwzFdc9Ohjej-21" value="Lose a life" style="rounded=1;whiteSpace=wrap;html=1;" vertex="1" parent="WIyWlLk6GJQsqaUBKTNV-1">
          <mxGeometry x="550" y="560" width="120" height="60" as="geometry" />
        </mxCell>
        <mxCell id="d7KhDOHrDwzFdc9Ohjej-34" value="Yes" style="edgeStyle=orthogonalEdgeStyle;rounded=0;orthogonalLoop=1;jettySize=auto;html=1;entryX=0.5;entryY=0;entryDx=0;entryDy=0;labelBackgroundColor=#ffffff;fontSize=14;strokeColor=#000000;" edge="1" parent="WIyWlLk6GJQsqaUBKTNV-1" source="d7KhDOHrDwzFdc9Ohjej-22" target="d7KhDOHrDwzFdc9Ohjej-24">
          <mxGeometry x="-0.6053" y="10" relative="1" as="geometry">
            <mxPoint as="offset" />
          </mxGeometry>
        </mxCell>
        <mxCell id="d7KhDOHrDwzFdc9Ohjej-36" value="No" style="edgeStyle=orthogonalEdgeStyle;rounded=0;orthogonalLoop=1;jettySize=auto;html=1;entryX=0;entryY=0.5;entryDx=0;entryDy=0;labelBackgroundColor=#ffffff;fontSize=14;strokeColor=#000000;" edge="1" parent="WIyWlLk6GJQsqaUBKTNV-1" source="d7KhDOHrDwzFdc9Ohjej-22" target="d7KhDOHrDwzFdc9Ohjej-18">
          <mxGeometry relative="1" as="geometry">
            <Array as="points">
              <mxPoint x="120" y="770" />
              <mxPoint x="120" y="350" />
            </Array>
          </mxGeometry>
        </mxCell>
        <mxCell id="d7KhDOHrDwzFdc9Ohjej-22" value="Are all the blanks filled?" style="rhombus;whiteSpace=wrap;html=1;spacingTop=4;" vertex="1" parent="WIyWlLk6GJQsqaUBKTNV-1">
          <mxGeometry x="160" y="720" width="120" height="100" as="geometry" />
        </mxCell>
        <mxCell id="d7KhDOHrDwzFdc9Ohjej-35" value="Yes" style="edgeStyle=orthogonalEdgeStyle;rounded=0;orthogonalLoop=1;jettySize=auto;html=1;entryX=0.5;entryY=0;entryDx=0;entryDy=0;labelBackgroundColor=#ffffff;fontSize=14;strokeColor=#000000;" edge="1" parent="WIyWlLk6GJQsqaUBKTNV-1" source="d7KhDOHrDwzFdc9Ohjej-23" target="d7KhDOHrDwzFdc9Ohjej-24">
          <mxGeometry x="-0.5681" y="-10" relative="1" as="geometry">
            <mxPoint as="offset" />
          </mxGeometry>
        </mxCell>
        <mxCell id="d7KhDOHrDwzFdc9Ohjej-37" value="No" style="edgeStyle=orthogonalEdgeStyle;rounded=0;orthogonalLoop=1;jettySize=auto;html=1;entryX=1;entryY=0.5;entryDx=0;entryDy=0;labelBackgroundColor=#ffffff;fontSize=14;strokeColor=#000000;" edge="1" parent="WIyWlLk6GJQsqaUBKTNV-1" source="d7KhDOHrDwzFdc9Ohjej-23" target="d7KhDOHrDwzFdc9Ohjej-18">
          <mxGeometry relative="1" as="geometry">
            <Array as="points">
              <mxPoint x="720" y="770" />
              <mxPoint x="720" y="350" />
            </Array>
          </mxGeometry>
        </mxCell>
        <mxCell id="d7KhDOHrDwzFdc9Ohjej-23" value="Have they run out of lifes?" style="rhombus;whiteSpace=wrap;html=1;spacingTop=12;" vertex="1" parent="WIyWlLk6GJQsqaUBKTNV-1">
          <mxGeometry x="545" y="720" width="130" height="100" as="geometry" />
        </mxCell>
        <mxCell id="d7KhDOHrDwzFdc9Ohjej-24" value="GAME OVER" style="rounded=1;whiteSpace=wrap;html=1;" vertex="1" parent="WIyWlLk6GJQsqaUBKTNV-1">
          <mxGeometry x="354" y="940" width="120" height="60" as="geometry" />
        </mxCell>
      </root>
    </mxGraphModel>
  </diagram>
</mxfile>
